<svg data-v-44f83da5="" version="1.0" xmlns="http://www.w3.org/2000/svg" xmlns:xlink="http://www.w3.org/1999/xlink"
  width="100%" height="100%" viewBox="0 0 220.000000 80.000000" preserveAspectRatio="xMidYMid meet"
  color-interpolation-filters="sRGB" class="el-tooltip" style="margin: auto;">
  <rect data-v-44f83da5="" x="0" y="0" width="100%" height="100%" fill="#fff" fill-opacity="1"></rect>
  <g data-v-44f83da5="" fill="#333" class="newinitialsvg-g newinitialsvg"
    transform="translate(30.51775360107422, 23.0595703125)">
    <g class="tp-name">
      <g transform="translate(0, 0)">
        <g fill="#333" transform="translate(0,3)">
          <path
            d="M8.35-6.24L8.35-6.24L8.17-6.06Q7.82-5.98 7.73-5.93Q7.65-5.89 7.47-5.45L7.47-5.45L7.12-4.75L7.47-3.87L7.56-3.08L7.91-3.08Q7.82-2.81 7.87-2.72Q7.91-2.64 8.31-2.59Q8.70-2.55 9.05-2.90L9.05-2.90Q9.23-2.99 9.32-3.16Q9.40-3.34 9.80-4.61Q10.20-5.89 10.24-6.42Q10.28-6.94 10.46-7.12L10.46-7.12L10.81-7.47L13.27-13.80L14.85-18.37L15.47-19.34Q16.00-20.21 16.08-20.30L16.08-20.30L16.70-20.57L16.88-20.13Q17.14-20.48 17.49-20.43Q17.84-20.39 17.89-20.13Q17.93-19.86 17.75-19.34L17.75-19.34L17.67-18.54L16.88-17.67L17.05-17.40L16.79-16.96L16.96-16.79Q16.61-16.52 16.61-16.44L16.61-16.44L16.52-15.73L16.17-15.56L16.35-15.38L16.08-15.29Q16.00-14.94 16.08-14.68L16.08-14.68L15.73-13.89L15.29-11.87L15.12-11.43L14.94-11.60L15.03-11.25L14.77-10.99L14.85-10.81Q14.41-10.46 14.41-10.28L14.41-10.28L14.24-9.32L13.89-8.88L13.97-8.61L13.71-8.70L13.62-9.32L13.54-8.35L13.71-8.09L13.54-7.91L13.27-7.82L13.45-7.38Q13.01-6.94 13.01-6.77L13.01-6.77L12.83-5.80Q12.48-5.54 12.57-5.54L12.57-5.54L12.74-5.36L12.39-4.66L12.22-4.57L12.39-4.48L12.04-4.31L12.22-4.13L12.04-3.96Q11.95-3.78 12.04-3.60L12.04-3.60L11.69-3.25L11.87-3.34Q11.51-2.11 10.94-0.97Q10.37 0.18 10.28 0.35Q10.20 0.53 10.11 0.70Q10.02 0.88 9.76 0.83Q9.49 0.79 9.49 0.62L9.49 0.62L9.23 0.09L8.53 0.09L8.53-0.18Q8.26 0.18 8.13 0.26Q8.00 0.35 7.91 0.40Q7.82 0.44 7.47 0.22Q7.12 0 6.33-2.55L6.33-2.55L1.93-16.79L1.58-18.54Q1.05-20.39 1.05-20.57L1.05-20.57Q1.05-20.92 1.36-21.36Q1.67-21.80 3.78-21.71L3.78-21.71Q5.01-21.62 5.45-21.53Q5.89-21.45 6.20-21.18Q6.50-20.92 6.59-20.74L6.59-20.74L8.17-14.24Q9.14-10.11 9.58-9.45Q10.02-8.79 10.11-8.61L10.11-8.61L9.67-7.56L9.40-6.50Q9.32-6.42 9.01-6.02Q8.70-5.63 8.61-5.71L8.61-5.71Q8.35-5.71 8.35-5.98L8.35-5.98L8.35-6.06L8.35-6.24Z"
            transform="translate(-1.0546875, 28.037109375)"></path>
        </g>
      </g>
      <g transform="translate(20.83984375, 0)">
        <g fill="#333" transform="translate(0,3)">
          <path d="M1.85-15.29L28.83-15.29L28.83-11.51L1.85-11.51L1.85-15.29Z"
            transform="translate(-1.845703125, 28.037109375)"></path>
        </g>
      </g>
      <g transform="translate(51.822265625, 0)">
        <g fill="#333" transform="translate(0,3)">
          <path
            d="M1.67 0.09L1.05-0.44L1.05-0.62L1.14-0.97L1.58-9.32L1.58-11.87L1.76-19.86L2.11-25.22L2.37-27.07L2.81-26.98Q2.90-27.60 3.08-27.60L3.08-27.60L3.60-27.69L3.52-28.04Q4.39-27.60 4.70-27.64Q5.01-27.69 5.14-27.64Q5.27-27.60 5.36-27.60L5.36-27.60L5.54-27.33L5.80-27.33Q6.50-26.54 7.03-26.06Q7.56-25.58 7.65-25.31L7.65-25.31L7.65-24.43L7.73-23.91L7.56-23.55Q7.47-23.38 7.56-22.59L7.56-22.59L7.47-20.92L7.56-20.48L7.73-20.39L7.12-19.34L7.56-18.11L7.47-17.67Q8.44-18.54 9.45-19.25Q10.46-19.95 11.34-19.91Q12.22-19.86 12.66-19.78L12.66-19.78L13.89-19.34Q14.50-19.07 14.77-18.90L14.77-18.90L15.29-18.37L16.00-18.02Q16.08-17.93 16.66-17.18Q17.23-16.44 17.23-16.35L17.23-16.35L17.14-16.08Q17.49-15.29 17.49-15.12L17.49-15.12L17.31-14.50L17.49-14.50Q17.31-14.15 17.27-13.97Q17.23-13.80 17.31-12.57L17.31-12.57L16.96-9.14L17.14-7.65L16.96-6.77L16.61-6.59Q17.23-6.15 17.14-6.06L17.14-6.06L16.96-5.71Q16.96-4.83 16.92-4.22Q16.88-3.60 16.66-2.99Q16.44-2.37 16.35-2.46L16.35-2.46L16.17-2.55L15.12-3.60L14.94-3.43L14.77-3.60L14.59-3.25L13.45-2.81Q13.10-2.55 13.01-2.37Q12.92-2.20 12.92-1.67L12.92-1.67L12.92-1.32L13.27-1.23Q13.27-0.88 13.36-0.79Q13.45-0.70 14.77-0.79L14.77-0.79L15.29-0.79Q15.56-0.79 15.73-0.88Q15.91-0.97 16.26-1.23L16.26-1.23L17.49-2.11L17.93-3.08L19.16-4.39Q20.13-5.63 20.39-5.63L20.39-5.63L20.65-5.63Q20.39-4.92 20.17-4.61Q19.95-4.31 19.95-4.22L19.95-4.22L19.95-3.69Q19.86-3.52 19.51-3.12Q19.16-2.72 18.68-1.98Q18.19-1.23 17.49-0.79L17.49-0.79L15.56 0.44L15.73 0.26Q14.06 0.44 13.62 0.09L13.62 0.09L13.10-0.09L12.22-1.05L11.95-1.67L11.78-1.85L12.04-8.61L11.78-14.77Q11.87-15.56 11.82-16.04Q11.78-16.52 11.34-17.05L11.34-17.05Q10.72-17.49 10.55-17.40L10.55-17.40L9.67-17.05Q9.05-16.79 8.79-16.26Q8.53-15.73 8.53-15.82L8.53-15.82L8.44-15.91L8.44-15.64L8.00-15.56L8.09-15.21L7.82-15.29Q7.65-14.59 7.56-14.50L7.56-14.50L7.21-14.24Q7.29-14.06 7.38-14.06L7.38-14.06L7.21-13.62L7.21-13.01L6.94-12.57L7.12-12.39Q7.12-12.30 6.94-11.65Q6.77-10.99 6.68-10.94Q6.59-10.90 6.68-10.90L6.68-10.90L6.86-10.81L7.21-10.90L6.86-10.46L6.68-8.61Q6.68-7.47 6.64-6.77Q6.59-6.06 6.59-5.54L6.59-5.54L6.42-3.87L6.50-1.58L6.59-1.05L5.54-0.09Q4.75-1.14 4.39-1.14L4.39-1.14L3.16 0L2.55 0.35L1.67 0.09Z"
            transform="translate(-1.0546875, 28.037109375)"></path>
        </g>
      </g>
      <g transform="translate(75.421875, 0)">
        <g fill="#333" transform="translate(0,3)">
          <path
            d="M1.49-3.96L1.32-7.47L1.14-12.48Q1.14-12.57 1.23-13.10L1.23-13.10L1.32-14.50Q1.32-15.38 1.93-16.61Q2.55-17.84 2.68-18.37Q2.81-18.90 2.99-18.98L2.99-18.98L3.43-19.07Q3.87-19.69 4.31-20.08Q4.75-20.48 5.98-20.83Q7.21-21.18 8.61-21.18L8.61-21.18Q11.51-21.09 13.14-19.82Q14.77-18.54 14.85-17.67L14.85-17.67L14.85-16.52L15.12-15.64L14.85-14.77Q15.03-14.59 15.12-14.50L15.12-14.50L14.85-13.36L14.94-12.57Q14.94-12.48 14.85-11.51L14.85-11.51L14.33-5.45Q14.15-3.96 13.75-3.56Q13.36-3.16 13.45-3.16L13.45-3.16L13.62-2.99Q13.01-2.29 12.48-1.76Q11.95-1.23 11.60-0.75Q11.25-0.26 11.07-0.35L11.07-0.35L10.37-0.44L10.20-0.18L10.20-0.35Q10.02-0.09 9.93-0.04Q9.84 0 8.09 0L8.09 0L6.94 0.18Q6.86 0.26 6.86 0.18L6.86 0.18Q6.33 0.18 5.58 0Q4.83-0.18 4.31-0.44Q3.78-0.70 3.30-1.05Q2.81-1.41 2.15-2.20Q1.49-2.99 1.49-3.96L1.49-3.96ZM4.83-1.85L4.83-1.85Q5.01-1.58 5.19-1.58L5.19-1.58L6.50-1.41L6.86-1.23Q6.94-1.14 7.21-1.23L7.21-1.23L8.88-1.14Q9.14-1.05 9.40-1.14L9.40-1.14Q9.93-1.14 10.72-1.41Q11.51-1.67 11.51-1.76L11.51-1.76L11.25-1.85L11.34-2.11Q11.78-2.46 11.91-2.77Q12.04-3.08 12.22-3.52L12.22-3.52L12.57-4.92L12.39-4.92L12.83-7.56Q12.83-8.00 13.01-11.25Q13.18-14.50 12.83-15.21L12.83-15.21L11.78-17.31L11.34-17.49L10.55-17.67Q10.28-17.75 10.20-17.75L10.20-17.75L10.11-17.75Q9.76-17.93 9.62-17.97Q9.49-18.02 8.48-17.84Q7.47-17.67 7.43-17.62Q7.38-17.58 7.12-17.31L7.12-17.31L6.77-16.96Q6.15-16.26 6.06-14.68L6.06-14.68L5.71-10.37L5.89-5.71L5.89-5.45Q5.89-5.27 5.98-5.10L5.98-5.10L5.89-4.92L5.98-4.22Q6.06-4.22 6.15-4.17Q6.24-4.13 6.24-3.96L6.24-3.96L6.24-3.60L5.80-3.69L5.10-3.16L5.19-3.52L4.31-3.78L3.78-3.52L3.87-3.34L3.34-3.34Q3.34-3.34 3.43-3.34L3.43-3.34L3.16-2.72L3.87-2.46L4.83-1.85Z"
            transform="translate(-1.142578125, 28.037109375)"></path>
        </g>
      </g>
      <g transform="translate(93.396484375, 0)">
        <g fill="#333" transform="translate(0,3)">
          <path
            d="M1.49-3.96L1.32-7.47L1.14-12.48Q1.14-12.57 1.23-13.10L1.23-13.10L1.32-14.50Q1.32-15.38 1.93-16.61Q2.55-17.84 2.68-18.37Q2.81-18.90 2.99-18.98L2.99-18.98L3.43-19.07Q3.87-19.69 4.31-20.08Q4.75-20.48 5.98-20.83Q7.21-21.18 8.61-21.18L8.61-21.18Q11.51-21.09 13.14-19.82Q14.77-18.54 14.85-17.67L14.85-17.67L14.85-16.52L15.12-15.64L14.85-14.77Q15.03-14.59 15.12-14.50L15.12-14.50L14.85-13.36L14.94-12.57Q14.94-12.48 14.85-11.51L14.85-11.51L14.33-5.45Q14.15-3.96 13.75-3.56Q13.36-3.16 13.45-3.16L13.45-3.16L13.62-2.99Q13.01-2.29 12.48-1.76Q11.95-1.23 11.60-0.75Q11.25-0.26 11.07-0.35L11.07-0.35L10.37-0.44L10.20-0.18L10.20-0.35Q10.02-0.09 9.93-0.04Q9.84 0 8.09 0L8.09 0L6.94 0.18Q6.86 0.26 6.86 0.18L6.86 0.18Q6.33 0.18 5.58 0Q4.83-0.18 4.31-0.44Q3.78-0.70 3.30-1.05Q2.81-1.41 2.15-2.20Q1.49-2.99 1.49-3.96L1.49-3.96ZM4.83-1.85L4.83-1.85Q5.01-1.58 5.19-1.58L5.19-1.58L6.50-1.41L6.86-1.23Q6.94-1.14 7.21-1.23L7.21-1.23L8.88-1.14Q9.14-1.05 9.40-1.14L9.40-1.14Q9.93-1.14 10.72-1.41Q11.51-1.67 11.51-1.76L11.51-1.76L11.25-1.85L11.34-2.11Q11.78-2.46 11.91-2.77Q12.04-3.08 12.22-3.52L12.22-3.52L12.57-4.92L12.39-4.92L12.83-7.56Q12.83-8.00 13.01-11.25Q13.18-14.50 12.83-15.21L12.83-15.21L11.78-17.31L11.34-17.49L10.55-17.67Q10.28-17.75 10.20-17.75L10.20-17.75L10.11-17.75Q9.76-17.93 9.62-17.97Q9.49-18.02 8.48-17.84Q7.47-17.67 7.43-17.62Q7.38-17.58 7.12-17.31L7.12-17.31L6.77-16.96Q6.15-16.26 6.06-14.68L6.06-14.68L5.71-10.37L5.89-5.71L5.89-5.45Q5.89-5.27 5.98-5.10L5.98-5.10L5.89-4.92L5.98-4.22Q6.06-4.22 6.15-4.17Q6.24-4.13 6.24-3.96L6.24-3.96L6.24-3.60L5.80-3.69L5.10-3.16L5.19-3.52L4.31-3.78L3.78-3.52L3.87-3.34L3.34-3.34Q3.34-3.34 3.43-3.34L3.43-3.34L3.16-2.72L3.87-2.46L4.83-1.85Z"
            transform="translate(-1.142578125, 28.037109375)"></path>
        </g>
      </g>
      <g transform="translate(111.37109375, 0)">
        <polyline stroke="#333" stroke-width="2" fill-opacity="0" stroke-linejoin="round"
          points="0,0 0,-5 23.666015625,-5 23.666015625,0"></polyline>
        <polyline stroke="#333" stroke-width="2" fill-opacity="0" stroke-linejoin="round"
          points="0,33.880859375 0,38.880859375 23.666015625,38.880859375 23.666015625,33.880859375"></polyline>
        <g fill="#333" transform="translate(3,3)">
          <path
            d="M1.14-2.46L1.14-2.46L1.23-5.80L1.32-12.30L1.49-21.62Q1.49-21.62 1.67-22.76L1.67-22.76L1.67-26.10Q1.67-26.98 1.93-27.25L1.93-27.25L2.46-27.95Q2.81-27.69 2.90-27.77L2.90-27.77L3.34-28.04Q3.78-27.77 4.04-27.77L4.04-27.77L5.98-27.86L6.42-27.51Q6.59-27.60 6.94-27.64Q7.29-27.69 7.34-26.94Q7.38-26.19 7.38-26.02L7.38-26.02L7.38-25.22L7.38-24.17Q7.38-23.38 7.16-22.98Q6.94-22.59 7.03-22.59L7.03-22.59L7.21-22.24Q7.03-21.53 7.03-21.18L7.03-21.18L7.21-18.37Q7.21-18.19 7.21-17.75L7.21-17.75L7.21-16.96L7.03-13.62L10.02-17.14L10.63-18.02L11.25-18.54L11.51-19.25L11.87-19.34L11.78-19.69Q12.04-19.69 12.13-19.78L12.13-19.78L12.39-20.21L12.66-20.30L12.74-20.74Q12.74-20.74 13.01-20.83L13.01-20.83L13.27-21.01L14.06-21.36L14.94-20.65Q15.29-20.04 15.64-19.60L15.64-19.60L15.56-19.42L14.94-18.63Q14.68-18.37 14.77-18.37L14.77-18.37L14.94-18.11Q14.24-17.58 13.93-16.92Q13.62-16.26 13.23-15.95Q12.83-15.64 12.83-15.73L12.83-15.73L13.01-15.56L12.66-15.38L12.57-15.03L12.74-15.12Q12.30-15.03 12.39-15.03L12.39-15.03L12.48-14.85L11.87-14.15Q11.69-13.80 11.07-13.45L11.07-13.45L11.16-13.18L10.63-12.57L10.63-12.48Q9.84-12.13 9.84-12.04L9.84-12.04L9.14-10.99L10.55-9.49L13.18-5.01Q14.33-2.99 14.94-3.08L14.94-3.08L16.35-3.96L18.19-5.01L18.81-5.27L17.67-2.72Q17.31-2.20 17.27-1.80Q17.23-1.41 17.14-1.41L17.14-1.41L16.96-1.32L17.14-0.62Q16.88-0.35 16.88-0.53L16.88-0.53L16.79-0.18L16.44-0.26L16.61 0.09Q16.08 0.35 15.78 0.31Q15.47 0.26 14.46-0.53Q13.45-1.32 12.22-3.69L12.22-3.69L10.20-7.56Q9.32-8.88 8.79-9.14L8.79-9.14L8.09-9.40L8.26-9.76Q8.09-9.76 8.00-9.80Q7.91-9.84 7.38-9.14L7.38-9.14L7.03-8.70Q6.86-8.44 6.86-7.21L6.86-7.21L6.59-5.45L6.59-1.76Q6.50-1.67 6.20-1.05Q5.89-0.44 5.76-0.40Q5.63-0.35 5.54-0.44L5.54-0.44Q5.10-0.44 5.10-0.53L5.10-0.53L4.57-1.05Q3.78-0.88 3.69-0.62L3.69-0.62L3.43 0.26L2.81 0.53L2.11 0L2.02 0.62L1.49-0.09Q1.32-0.35 1.32-0.62L1.32-0.62L1.41-2.11L1.14-2.46Z"
            transform="translate(-1.142578125, 28.037109375)"></path>
        </g>
      </g>
      <g transform="translate(139.037109375, 0)">
        <g fill="#333" transform="translate(0,3)">
          <path
            d="M1.49-7.12L1.49-7.12L2.02-7.21Q1.85-6.24 1.89-5.01Q1.93-3.78 3.69-2.11Q5.45-0.44 6.86-0.57Q8.26-0.70 8.44-0.88L8.44-0.88L9.14-1.49Q8.88-1.67 8.79-1.76L8.79-1.76L7.82-2.02L7.65-2.72Q9.58-2.72 10.37-3.08Q11.16-3.43 11.60-4.04Q12.04-4.66 12.08-5.19Q12.13-5.71 12.13-5.89L12.13-5.89L11.78-7.38Q11.69-7.73 11.69-7.82L11.69-7.82L11.25-8.09Q10.99-8.44 10.81-8.61L10.81-8.61L10.11-8.79L9.40-9.05Q9.05-8.96 9.05-9.05L9.05-9.05L8.88-9.32Q8.79-9.32 8.26-9.40L8.26-9.40L7.47-9.76Q6.94-9.76 6.94-9.84L6.94-9.84L6.86-10.02Q6.77-10.11 6.20-10.24Q5.63-10.37 5.05-10.85Q4.48-11.34 4.13-11.95L4.13-11.95L3.52-12.92Q2.99-13.62 2.86-13.84Q2.72-14.06 2.55-14.90Q2.37-15.73 2.46-16.00L2.46-16.00Q2.46-16.08 2.68-17.14Q2.90-18.19 3.30-19.03Q3.69-19.86 4.17-20.21Q4.66-20.57 6.15-21.23Q7.65-21.88 9.58-21.88L9.58-21.88Q11.07-21.80 12.57-21.09Q14.06-20.39 14.77-19.38Q15.47-18.37 15.64-18.37L15.64-18.37L16.35-18.02L16.61-17.40Q16.44-17.05 16.39-17.01Q16.35-16.96 15.29-17.49L15.29-17.49L14.24-17.84L13.80-18.37Q13.45-18.19 13.27-18.19L13.27-18.19L11.07-18.37L11.07-18.37L8.61-17.31Q7.29-16.52 7.56-15.12L7.56-15.12Q7.65-13.97 8.04-13.67Q8.44-13.36 9.76-13.01L9.76-13.01L11.69-12.13Q13.01-11.51 13.27-11.43L13.27-11.43L13.62-11.07L15.29-9.93Q15.38-9.76 15.95-9.01Q16.52-8.26 16.70-7.82L16.70-7.82L16.88-5.63L17.05-5.36L16.70-5.19Q17.14-4.92 17.05-4.92L17.05-4.92L16.70-4.75L16.96-4.57L16.70-3.60Q16.17-3.34 16.17-3.16L16.17-3.16L16.17-2.64L15.91-2.11L15.47-1.85L15.38-1.41L14.41-0.97L14.68-0.88L14.41-0.62L14.41-0.88Q13.62-0.35 12.96-0.04Q12.30 0.26 10.46 0.26L10.46 0.26Q9.84 0.35 9.58 0.26L9.58 0.26L6.94 0Q6.24 0 6.15-0.09L6.15-0.09L5.71-0.62Q5.63-0.62 4.61-0.79Q3.60-0.97 3.03-1.63Q2.46-2.29 2.02-2.86Q1.58-3.43 1.63-3.65Q1.67-3.87 1.67-3.96L1.67-3.96L1.23-4.22Q1.14-4.31 1.14-4.92L1.14-4.92L1.14-6.24L1.49-7.12Z"
            transform="translate(-1.142578125, 28.037109375)"></path>
        </g>
      </g>
    </g>
    <!---->
  </g>
</svg>